# xmcd
#
# Track frame offsets:
#	150
#	12384
#	25221
#	38878
#	56026
#	66026
#	74107
#	85928
#	99018
#	110640
#	123123
#	134862
#	146729
#
# Disc length: 2097 seconds
# Revision: 0
# Processed by: cddbd v1.5.2PL0 Copyright (c) Steve Scherf et al.
# Submitted via: dBpowerAMP V12.0
#
DISCID=bf082f0d
DTITLE=Blueridge - Side by Side
DYEAR=2004
DGENRE=Country
TTITLE0=What If (Then I'll Come Back to You)
TTITLE1=The Brand New Tennessee Waltz
TTITLE2=Ten Plagues
TTITLE3=Side by Side
TTITLE4=Avalanche
TTITLE5=Land of Light
TTITLE6=You Better Get
TTITLE7=All the Good Times
TTITLE8=Do What You Want to Do
TTITLE9=Back to Cana
TTITLE10=Sailing With the Master
TTITLE11=Before the Sun Goes Down
TTITLE12=Pocket Full of Money
EXTD=
EXTT0=
EXTT1=
EXTT2=
EXTT3=
EXTT4=
EXTT5=
EXTT6=
EXTT7=
EXTT8=
EXTT9=
EXTT10=
EXTT11=
EXTT12=
PLAYORDER=
